<svg width="128" height="128" viewBox="0 0 128 128" fill="none" xmlns="http://www.w3.org/2000/svg">
<g clip-path="url(#clip0_1_293)">
<rect width="128" height="128" fill="black"/>
<path d="M45.436 30.92V99H29.704V30.92H45.436ZM64.7488 42.328C61.9888 42.328 59.7195 41.5307 57.9408 39.936C56.2235 38.28 55.3648 36.256 55.3648 33.864C55.3648 31.4107 56.2235 29.3867 57.9408 27.792C59.7195 26.136 61.9888 25.308 64.7488 25.308C67.4475 25.308 69.6555 26.136 71.3728 27.792C73.1515 29.3867 74.0408 31.4107 74.0408 33.864C74.0408 36.256 73.1515 38.28 71.3728 39.936C69.6555 41.5307 67.4475 42.328 64.7488 42.328ZM72.5688 47.664V99H56.8368V47.664H72.5688ZM115.25 47.112C121.26 47.112 126.044 49.0747 129.602 53C133.22 56.864 135.03 62.2 135.03 69.008V99H119.39V71.124C119.39 67.6893 118.5 65.0213 116.722 63.12C114.943 61.2187 112.551 60.268 109.546 60.268C106.54 60.268 104.148 61.2187 102.37 63.12C100.591 65.0213 99.7016 67.6893 99.7016 71.124V99H83.9696V47.664H99.7016V54.472C101.296 52.2027 103.443 50.424 106.142 49.136C108.84 47.7867 111.876 47.112 115.25 47.112ZM177.242 47.112C183.252 47.112 188.036 49.0747 191.594 53C195.212 56.864 197.022 62.2 197.022 69.008V99H181.382V71.124C181.382 67.6893 180.492 65.0213 178.714 63.12C176.935 61.2187 174.543 60.268 171.538 60.268C168.532 60.268 166.14 61.2187 164.362 63.12C162.583 65.0213 161.694 67.6893 161.694 71.124V99H145.962V47.664H161.694V54.472C163.288 52.2027 165.435 50.424 168.134 49.136C170.832 47.7867 173.868 47.112 177.242 47.112ZM204.826 73.24C204.826 67.9653 205.807 63.3347 207.77 59.348C209.794 55.3613 212.523 52.2947 215.958 50.148C219.393 48.0013 223.226 46.928 227.458 46.928C231.077 46.928 234.235 47.664 236.934 49.136C239.694 50.608 241.81 52.54 243.282 54.932V47.664H259.014V99H243.282V91.732C241.749 94.124 239.602 96.056 236.842 97.528C234.143 99 230.985 99.736 227.366 99.736C223.195 99.736 219.393 98.6627 215.958 96.516C212.523 94.308 209.794 91.2107 207.77 87.224C205.807 83.176 204.826 78.5147 204.826 73.24ZM243.282 73.332C243.282 69.4067 242.178 66.3093 239.97 64.04C237.823 61.7707 235.186 60.636 232.058 60.636C228.93 60.636 226.262 61.7707 224.054 64.04C221.907 66.248 220.834 69.3147 220.834 73.24C220.834 77.1653 221.907 80.2933 224.054 82.624C226.262 84.8933 228.93 86.028 232.058 86.028C235.186 86.028 237.823 84.8933 239.97 82.624C242.178 80.3547 243.282 77.2573 243.282 73.332Z" fill="white"/>
</g>
<defs>
<clipPath id="clip0_1_293">
<rect width="128" height="128" fill="white"/>
</clipPath>
</defs>
</svg>
