<svg width="128" height="128" viewBox="0 0 128 128" fill="none" xmlns="http://www.w3.org/2000/svg">
<path fill-rule="evenodd" clip-rule="evenodd" d="M128 0H0V128H128V99H119.39V71.124C119.39 67.6893 118.5 65.0213 116.722 63.12C114.943 61.2187 112.551 60.268 109.546 60.268C106.54 60.268 104.148 61.2187 102.37 63.12C100.591 65.0213 99.7016 67.6893 99.7016 71.124V99H83.9696V47.664H99.7016V54.472C101.296 52.2027 103.443 50.424 106.142 49.136C108.84 47.7867 111.876 47.112 115.25 47.112C120.401 47.112 124.651 48.5534 128 51.4362V0ZM64.7488 42.328C61.9888 42.328 59.7195 41.5307 57.9408 39.936C56.2235 38.28 55.3648 36.256 55.3648 33.864C55.3648 31.4107 56.2235 29.3867 57.9408 27.792C59.7195 26.136 61.9888 25.308 64.7488 25.308C67.4475 25.308 69.6555 26.136 71.3728 27.792C73.1515 29.3867 74.0408 31.4107 74.0408 33.864C74.0408 36.256 73.1515 38.28 71.3728 39.936C69.6555 41.5307 67.4475 42.328 64.7488 42.328ZM72.5688 47.664V99H56.8368V47.664H72.5688ZM45.436 30.92V99H29.704V30.92H45.436Z" fill="black"/>
</svg>
